<?xml version="1.0" encoding="UTF-8" standalone="no"?>
<!-- Generator: Adobe Illustrator 19.0.1, SVG Export Plug-In . SVG Version: 6.00 Build 0)  -->

<svg
   xmlns:dc="http://purl.org/dc/elements/1.1/"
   xmlns:cc="http://creativecommons.org/ns#"
   xmlns:rdf="http://www.w3.org/1999/02/22-rdf-syntax-ns#"
   xmlns:svg="http://www.w3.org/2000/svg"
   xmlns="http://www.w3.org/2000/svg"
   xmlns:sodipodi="http://sodipodi.sourceforge.net/DTD/sodipodi-0.dtd"
   xmlns:inkscape="http://www.inkscape.org/namespaces/inkscape"
   version="1.1"
   id="Layer_1"
   x="0px"
   y="0px"
   width="178.5px"
   height="104px"
   viewBox="-432 743.3 178.5 104"
   enable-background="new -432 743.3 178.5 104"
   xml:space="preserve"
   sodipodi:docname="dpad.svg"
   inkscape:version="0.92.3 (2405546, 2018-03-11)"><metadata
   id="metadata59"><rdf:RDF><cc:Work
       rdf:about=""><dc:format>image/svg+xml</dc:format><dc:type
         rdf:resource="http://purl.org/dc/dcmitype/StillImage" /><dc:title></dc:title></cc:Work></rdf:RDF></metadata><defs
   id="defs57" /><sodipodi:namedview
   pagecolor="#ffffff"
   bordercolor="#666666"
   borderopacity="1"
   objecttolerance="10"
   gridtolerance="10"
   guidetolerance="10"
   inkscape:pageopacity="0"
   inkscape:pageshadow="2"
   inkscape:window-width="1278"
   inkscape:window-height="1378"
   id="namedview55"
   showgrid="false"
   inkscape:zoom="3.1820728"
   inkscape:cx="-20.206194"
   inkscape:cy="79.646176"
   inkscape:window-x="-7"
   inkscape:window-y="30"
   inkscape:window-maximized="0"
   inkscape:current-layer="Layer_1" />
<g
   id="g26"
   transform="translate(0,53.000123)">
	<g
   id="g6">
		<path
   d="m -307.5,763.9 c 1.4,-2 1.2,-2.9 1.2,-2.9 0,0 0.2,-0.9 -1.2,-2.9 -1.4,-2 -15,-13.6 -15.7,-14 -0.7,-0.4 -28.5,-2.2 -31.4,1.3 -2.9,3.5 -2.6,15.6 -2.6,15.6 0,0 -0.3,12.1 2.6,15.6 2.9,3.5 30.7,1.7 31.4,1.3 0.7,-0.4 14.3,-12 15.7,-14 z"
   id="path2"
   inkscape:connector-curvature="0"
   style="fill:#1a1a1a" />
		<path
   enable-background="new    "
   d="m -307.5,763.9 c 1.4,-2 1.2,-2.9 1.2,-2.9 0,0 0.2,-0.9 -1.2,-2.9 -0.9,-1.3 -6.9,-6.6 -11.2,-10.3 -2.1,3.9 -3.4,8.4 -3.4,13.2 0,4.8 1.2,9.3 3.4,13.2 4.3,-3.7 10.3,-9 11.2,-10.3 z"
   id="path4"
   inkscape:connector-curvature="0"
   style="opacity:0.25" />
	</g>
	<g
   id="g12">
		<path
   d="m -379.8,793 c 2,1.4 2.9,1.2 2.9,1.2 0,0 0.9,0.2 2.9,-1.2 2,-1.4 13.6,-15 14,-15.7 0.4,-0.7 2.2,-28.5 -1.3,-31.4 -3.5,-2.9 -15.6,-2.6 -15.6,-2.6 0,0 -12.1,-0.2 -15.6,2.6 -3.5,2.8 -1.7,30.7 -1.3,31.4 0.4,0.7 12,14.3 14,15.7 z"
   id="path8"
   inkscape:connector-curvature="0"
   style="fill:#1a1a1a" />
		<path
   enable-background="new    "
   d="m -379.8,793 c 2,1.4 2.9,1.2 2.9,1.2 0,0 0.9,0.2 2.9,-1.2 1.3,-0.9 6.6,-6.9 10.3,-11.2 -3.9,-2.1 -8.4,-3.4 -13.2,-3.4 -4.8,0 -9.3,1.2 -13.2,3.4 3.7,4.3 9,10.3 10.3,11.2 z"
   id="path10"
   inkscape:connector-curvature="0"
   style="opacity:0.25" />
	</g>
	<g
   id="g18">
		<path
   d="m -256.1,745.5 c -2.9,-3.5 -30.7,-1.7 -31.4,-1.3 -0.7,0.4 -14.3,12 -15.7,14 -1.4,2 -1.2,2.9 -1.2,2.9 0,0 -0.2,0.9 1.2,2.9 1.4,2 15,13.6 15.7,14 0.7,0.4 28.5,2.2 31.4,-1.3 2.9,-3.5 2.6,-15.6 2.6,-15.6 0,0 0.3,-12.1 -2.6,-15.6 z"
   id="path14"
   inkscape:connector-curvature="0"
   style="fill:#1a1a1a" />
		<path
   enable-background="new    "
   d="m -291.9,747.9 c -4.3,3.7 -10.3,9 -11.2,10.3 -1.4,2 -1.2,2.9 -1.2,2.9 0,0 -0.2,0.9 1.2,2.9 0.9,1.3 6.9,6.6 11.2,10.3 2.1,-3.9 3.4,-8.4 3.4,-13.2 0,-4.8 -1.3,-9.3 -3.4,-13.2 z"
   id="path16"
   inkscape:connector-curvature="0"
   style="opacity:0.25" />
	</g>
	<g
   id="g24">
		<path
   d="m -411.4,744.5 c -2,-1.4 -2.9,-1.2 -2.9,-1.2 0,0 -0.9,-0.2 -2.9,1.2 -2,1.4 -13.6,15 -14,15.7 -0.4,0.7 -2.2,28.5 1.3,31.4 3.5,2.9 15.6,2.6 15.6,2.6 0,0 12.1,0.3 15.6,-2.6 3.5,-2.9 1.7,-30.7 1.3,-31.4 -0.4,-0.7 -12,-14.3 -14,-15.7 z"
   id="path20"
   inkscape:connector-curvature="0"
   style="fill:#1a1a1a" />
		<path
   enable-background="new    "
   d="m -411.4,744.5 c -2,-1.4 -2.9,-1.2 -2.9,-1.2 0,0 -0.9,-0.2 -2.9,1.2 -1.3,0.9 -6.6,6.9 -10.3,11.2 3.9,2.1 8.4,3.4 13.2,3.4 4.8,0 9.3,-1.2 13.2,-3.4 -3.7,-4.3 -9,-10.3 -10.3,-11.2 z"
   id="path22"
   inkscape:connector-curvature="0"
   style="opacity:0.25" />
	</g>
</g>
<g
   id="g52"
   transform="translate(0,-52.999877)">
	<g
   id="g32">
		<path
   d="m -307.5,816.9 c 1.4,-2 1.2,-2.9 1.2,-2.9 0,0 0.2,-0.9 -1.2,-2.9 -1.4,-2 -15,-13.6 -15.7,-14 -0.7,-0.4 -28.5,-2.2 -31.4,1.3 -2.9,3.5 -2.6,15.6 -2.6,15.6 0,0 -0.3,12.1 2.6,15.6 2.9,3.5 30.7,1.7 31.4,1.3 0.7,-0.4 14.3,-12 15.7,-14 z"
   id="path28"
   inkscape:connector-curvature="0"
   style="fill:#e6e6e6" />
		<path
   enable-background="new    "
   d="m -307.5,816.9 c 1.4,-2 1.2,-2.9 1.2,-2.9 0,0 0.2,-0.9 -1.2,-2.9 -0.9,-1.3 -6.9,-6.6 -11.2,-10.3 -2.1,3.9 -3.4,8.4 -3.4,13.2 0,4.8 1.2,9.3 3.4,13.2 4.3,-3.7 10.3,-9 11.2,-10.3 z"
   id="path30"
   inkscape:connector-curvature="0"
   style="opacity:0.25;fill:#ffffff" />
	</g>
	<g
   id="g38">
		<path
   d="m -379.8,846 c 2,1.4 2.9,1.2 2.9,1.2 0,0 0.9,0.2 2.9,-1.2 2,-1.4 13.6,-15 14,-15.7 0.4,-0.7 2.2,-28.5 -1.3,-31.4 -3.5,-2.9 -15.6,-2.6 -15.6,-2.6 0,0 -12.1,-0.2 -15.6,2.6 -3.5,2.8 -1.7,30.7 -1.3,31.4 0.4,0.7 12,14.3 14,15.7 z"
   id="path34"
   inkscape:connector-curvature="0"
   style="fill:#e6e6e6" />
		<path
   enable-background="new    "
   d="m -379.8,846 c 2,1.4 2.9,1.2 2.9,1.2 0,0 0.9,0.2 2.9,-1.2 1.3,-0.9 6.6,-6.9 10.3,-11.2 -3.9,-2.1 -8.4,-3.4 -13.2,-3.4 -4.8,0 -9.3,1.2 -13.2,3.4 3.7,4.3 9,10.3 10.3,11.2 z"
   id="path36"
   inkscape:connector-curvature="0"
   style="opacity:0.25;fill:#ffffff" />
	</g>
	<g
   id="g44">
		<path
   d="m -256.1,798.4 c -2.9,-3.5 -30.7,-1.7 -31.4,-1.3 -0.7,0.4 -14.3,12 -15.7,14 -1.4,2 -1.2,2.9 -1.2,2.9 0,0 -0.2,0.9 1.2,2.9 1.4,2 15,13.6 15.7,14 0.7,0.4 28.5,2.2 31.4,-1.3 2.9,-3.5 2.6,-15.6 2.6,-15.6 0,0 0.3,-12.1 -2.6,-15.6 z"
   id="path40"
   inkscape:connector-curvature="0"
   style="fill:#e6e6e6" />
		<path
   enable-background="new    "
   d="m -291.9,800.9 c -4.3,3.7 -10.3,9 -11.2,10.3 -1.4,2 -1.2,2.9 -1.2,2.9 0,0 -0.2,0.9 1.2,2.9 0.9,1.3 6.9,6.6 11.2,10.3 2.1,-3.9 3.4,-8.4 3.4,-13.2 0,-4.8 -1.3,-9.3 -3.4,-13.2 z"
   id="path42"
   inkscape:connector-curvature="0"
   style="opacity:0.25;fill:#ffffff" />
	</g>
	<g
   id="g50">
		<path
   d="m -411.4,797.5 c -2,-1.4 -2.9,-1.2 -2.9,-1.2 0,0 -0.9,-0.2 -2.9,1.2 -2,1.4 -13.6,15 -14,15.7 -0.4,0.7 -2.2,28.5 1.3,31.4 3.5,2.9 15.6,2.6 15.6,2.6 0,0 12.1,0.3 15.6,-2.6 3.5,-2.9 1.7,-30.7 1.3,-31.4 -0.4,-0.7 -12,-14.3 -14,-15.7 z"
   id="path46"
   inkscape:connector-curvature="0"
   style="fill:#e6e6e6" />
		<path
   enable-background="new    "
   d="m -411.4,797.5 c -2,-1.4 -2.9,-1.2 -2.9,-1.2 0,0 -0.9,-0.2 -2.9,1.2 -1.3,0.9 -6.6,6.9 -10.3,11.2 3.9,2.1 8.4,3.4 13.2,3.4 4.8,0 9.3,-1.2 13.2,-3.4 -3.7,-4.3 -9,-10.3 -10.3,-11.2 z"
   id="path48"
   inkscape:connector-curvature="0"
   style="opacity:0.25;fill:#ffffff" />
	</g>
</g>
</svg>