<?xml version="1.0" encoding="UTF-8" standalone="no"?>
<!-- Generator: Adobe Illustrator 19.0.1, SVG Export Plug-In . SVG Version: 6.00 Build 0)  -->

<svg
   xmlns:dc="http://purl.org/dc/elements/1.1/"
   xmlns:cc="http://creativecommons.org/ns#"
   xmlns:rdf="http://www.w3.org/1999/02/22-rdf-syntax-ns#"
   xmlns:svg="http://www.w3.org/2000/svg"
   xmlns="http://www.w3.org/2000/svg"
   xmlns:sodipodi="http://sodipodi.sourceforge.net/DTD/sodipodi-0.dtd"
   xmlns:inkscape="http://www.inkscape.org/namespaces/inkscape"
   version="1.1"
   id="Layer_1"
   x="0px"
   y="0px"
   width="224px"
   height="112.3px"
   viewBox="-193 340.7 224 112.3"
   enable-background="new -193 340.7 224 112.3"
   xml:space="preserve"
   sodipodi:docname="face.svg"
   inkscape:version="0.92.3 (2405546, 2018-03-11)"><metadata
   id="metadata91"><rdf:RDF><cc:Work
       rdf:about=""><dc:format>image/svg+xml</dc:format><dc:type
         rdf:resource="http://purl.org/dc/dcmitype/StillImage" /><dc:title></dc:title></cc:Work></rdf:RDF></metadata><defs
   id="defs89">
	
	
	
	

		
		
	
			
			
		
		
		
	
			
			
		
		
		
	
			
			
		
		
		
	
			
			
		
	
	
	
	

		
		
	
			
			
		
		
		
	
		
		
	
		
		
	
			
			
		
			
			
		
			
			
		</defs><sodipodi:namedview
   pagecolor="#ffffff"
   bordercolor="#666666"
   borderopacity="1"
   objecttolerance="10"
   gridtolerance="10"
   guidetolerance="10"
   inkscape:pageopacity="0"
   inkscape:pageshadow="2"
   inkscape:window-width="1278"
   inkscape:window-height="1378"
   id="namedview87"
   showgrid="false"
   inkscape:zoom="5.0714286"
   inkscape:cx="30.249689"
   inkscape:cy="35.50822"
   inkscape:window-x="-7"
   inkscape:window-y="30"
   inkscape:window-maximized="0"
   inkscape:current-layer="Layer_1" />
<path
   style="fill:#aaaaaa;fill-opacity:1"
   inkscape:connector-curvature="0"
   id="path2"
   d="m -109.2,452 c -14.5,0 -26.3,-11.8 -26.3,-26.3 0,-14.5 11.8,-26.2 26.3,-26.2 14.5,0 26.2,11.8 26.2,26.3 0,14.5 -11.8,26.2 -26.2,26.2 z" /><path
   style="fill:#bbbbbb;fill-opacity:1"
   inkscape:connector-curvature="0"
   id="path4"
   d="m -109.2,400.5 c 13.9,0 25.3,11.3 25.3,25.2 0,13.9 -11.3,25.3 -25.3,25.3 -14,0 -25.3,-11.3 -25.3,-25.2 0,-13.9 11.3,-25.3 25.3,-25.3 m 0,-2 c -15,0 -27.3,12.2 -27.3,27.2 0,15 12.2,27.3 27.3,27.3 15.1,0 27.2,-12.2 27.2,-27.2 0,-15 -12.2,-27.3 -27.2,-27.3 z" /><path
   d="m -109.2,406.9 c -10.4,0 -18.9,8.5 -18.9,18.9 0,10.4 8.5,18.9 18.9,18.9 10.4,0 18.9,-8.5 18.9,-18.9 -0.1,-10.5 -8.5,-18.9 -18.9,-18.9 z m 0,34.9 c -8.9,0 -16,-7.2 -16,-16 0,-8.9 7.2,-16 16,-16 8.8,0 16,7.2 16,16 0,8.8 -7.2,16 -16,16 z"
   id="path8"
   inkscape:connector-curvature="0"
   style="fill:#009898" /><path
   style="fill:#aaaaaa;fill-opacity:1"
   inkscape:connector-curvature="0"
   id="path12"
   d="m -165.8,452 c -14.4,0 -26.2,-11.7 -26.2,-26.2 0,-14.5 11.8,-26.2 26.3,-26.2 14.5,0 26.3,11.8 26.3,26.2 0,14.4 -11.9,26.2 -26.4,26.2 z" /><path
   style="fill:#bbbbbb;fill-opacity:1"
   inkscape:connector-curvature="0"
   id="path14"
   d="m -165.7,400.5 c 13.9,0 25.3,11.3 25.3,25.2 0,13.9 -11.3,25.3 -25.3,25.3 -14,0 -25.3,-11.3 -25.3,-25.2 0,-13.9 11.3,-25.3 25.3,-25.3 m 0,-2 c -15.1,0 -27.3,12.3 -27.3,27.3 0,15 12.2,27.3 27.3,27.3 15.1,0 27.3,-12.2 27.3,-27.3 -0.1,-15 -12.3,-27.3 -27.3,-27.3 z" /><polygon
   points="-180.1,413.4 -167.8,425.8 -180.1,438.1 -178.1,440.2 -165.7,427.8 -153.4,440.2 -151.4,438.1 -163.7,425.8 -151.4,413.4 -153.4,411.4 -165.7,423.8 -178.1,411.4 "
   id="polygon18"
   style="fill:#824e20" /><path
   style="fill:#aaaaaa;fill-opacity:1"
   inkscape:connector-curvature="0"
   id="path22"
   d="m -52.7,452 c -14.5,0 -26.2,-11.8 -26.2,-26.3 0,-14.5 11.8,-26.2 26.2,-26.2 14.4,0 26.3,11.8 26.3,26.2 0,14.4 -11.9,26.3 -26.3,26.3 z" /><path
   style="fill:#bbbbbb;fill-opacity:1"
   inkscape:connector-curvature="0"
   id="path24"
   d="m -52.7,400.5 c 13.9,0 25.3,11.3 25.3,25.2 0,13.9 -11.3,25.3 -25.3,25.3 -14,0 -25.3,-11.3 -25.3,-25.2 0,-13.9 11.3,-25.3 25.3,-25.3 m 0,-2 c -15,0 -27.3,12.2 -27.3,27.2 0,15 12.2,27.3 27.3,27.3 15.1,0 27.3,-12.2 27.3,-27.3 0,-15.1 -12.3,-27.2 -27.3,-27.2 z" /><path
   d="m -41.2,411.4 h -23 -2.8 v 2.8 23 2.8 h 2.8 23 2.8 v -2.8 -23 -2.8 z m 0,25.9 h -23 v -23 h 23 z"
   id="path28"
   inkscape:connector-curvature="0"
   style="fill:#079647" /><path
   style="fill:#aaaaaa;fill-opacity:1"
   inkscape:connector-curvature="0"
   id="path32"
   d="m 3.7,452 c -14.5,0 -26.3,-11.8 -26.3,-26.3 0,-14.5 11.8,-26.2 26.3,-26.2 14.5,0 26.3,11.8 26.3,26.3 C 30,440.3 18.2,452 3.7,452 Z" /><path
   style="fill:#bbbbbb;fill-opacity:1"
   inkscape:connector-curvature="0"
   id="path34"
   d="m 3.8,400.5 c 13.9,0 25.3,11.3 25.3,25.2 0,13.9 -11.3,25.3 -25.3,25.3 -14,0 -25.3,-11.3 -25.3,-25.2 0,-13.9 11.3,-25.3 25.3,-25.3 m 0,-2 c -15,0 -27.3,12.2 -27.3,27.2 0,15 12.2,27.3 27.3,27.3 15.1,0 27.2,-12.2 27.2,-27.2 0,-15 -12.2,-27.3 -27.2,-27.3 z" /><path
   d="m 19.7,433.8 -16,-27.6 -16,27.6 -1.6,2.8 h 3.3 14.3 14.3 3.3 z m -15.9,0 H -8.9 l 12.7,-21.9 12.7,21.9 z"
   id="path38"
   inkscape:connector-curvature="0"
   style="fill:#be1e5f" />
<g
   id="g981"><g
     id="g953"><path
       style="fill:#f1f1f1;fill-opacity:1"
       inkscape:connector-curvature="0"
       id="path44"
       d="m -109.2,394.2 c -14.5,0 -26.3,-11.8 -26.3,-26.3 0,-14.5 11.8,-26.2 26.3,-26.2 14.5,0 26.2,11.8 26.2,26.2 0,14.4 -11.8,26.3 -26.2,26.3 z" /><path
       style="fill:#fafafa;fill-opacity:1"
       inkscape:connector-curvature="0"
       id="path46"
       d="m -109.2,342.7 c 13.9,0 25.2,11.3 25.2,25.3 0,14 -11.3,25.2 -25.2,25.2 -13.9,0 -25.3,-11.3 -25.3,-25.2 0,-13.9 11.3,-25.3 25.3,-25.3 m 0,-2 c -15,0 -27.3,12.2 -27.3,27.3 0,15.1 12.2,27.3 27.3,27.3 15.1,0 27.2,-12.3 27.2,-27.3 0,-15 -12.2,-27.3 -27.2,-27.3 z" /><path
       d="m -109.2,349.1 c -10.4,0 -18.9,8.5 -18.9,18.9 0,10.4 8.5,18.9 18.9,18.9 10.4,0 18.9,-8.5 18.9,-18.9 -0.1,-10.5 -8.5,-18.9 -18.9,-18.9 z m 0,34.9 c -8.9,0 -16,-7.2 -16,-16 0,-8.9 7.2,-16 16,-16 8.8,0 16,7.2 16,16 0,8.8 -7.2,16 -16,16 z"
       id="path50"
       inkscape:connector-curvature="0"
       style="fill:#f16667" /></g><g
     id="g948"><path
       style="fill:#f1f1f1;fill-opacity:1"
       inkscape:connector-curvature="0"
       id="path54"
       d="m -165.8,394.2 c -14.4,0 -26.2,-11.8 -26.2,-26.2 0,-14.4 11.8,-26.3 26.2,-26.3 14.4,0 26.3,11.8 26.3,26.3 0,14.5 -11.8,26.2 -26.3,26.2 z" /><path
       style="fill:#fafafa;fill-opacity:1"
       inkscape:connector-curvature="0"
       id="path56"
       d="m -165.7,342.7 c 13.9,0 25.3,11.3 25.3,25.3 0,14 -11.4,25.2 -25.3,25.2 -13.9,0 -25.3,-11.3 -25.3,-25.2 0,-13.9 11.3,-25.3 25.3,-25.3 m 0,-2 c -15.1,0 -27.3,12.2 -27.3,27.3 0,15 12.2,27.3 27.3,27.3 15.1,0 27.3,-12.2 27.3,-27.3 -0.1,-15.1 -12.3,-27.3 -27.3,-27.3 z" /><polygon
       points="-180.1,355.6 -167.8,367.9 -180.1,380.3 -178.1,382.3 -165.7,370 -153.4,382.3 -151.4,380.3 -163.7,367.9 -151.4,355.6 -153.4,353.6 -165.7,365.9 -178.1,353.6 "
       id="polygon60"
       style="fill:#7fb1df" /></g><g
     id="g958"><path
       style="fill:#f1f1f1;fill-opacity:1"
       inkscape:connector-curvature="0"
       id="path64"
       d="m -52.7,394.9 c -14.5,0 -26.2,-11.8 -26.2,-26.2 0,-14.4 11.8,-26.3 26.2,-26.3 14.4,0 26.3,11.8 26.3,26.3 0,14.5 -11.9,26.2 -26.3,26.2 z" /><path
       style="fill:#fafafa;fill-opacity:1"
       inkscape:connector-curvature="0"
       id="path66"
       d="m -52.7,343.4 c 13.9,0 25.3,11.3 25.3,25.3 0,14 -11.3,25.2 -25.3,25.2 -14,0 -25.3,-11.3 -25.3,-25.3 0,-14 11.3,-25.2 25.3,-25.2 m 0,-2 c -15,0 -27.3,12.2 -27.3,27.3 0,15.1 12.2,27.2 27.3,27.2 15.1,0 27.3,-12.2 27.3,-27.2 0,-15 -12.3,-27.3 -27.3,-27.3 z" /><path
       d="m -41.2,354.2 h -23 -2.8 v 2.8 23 2.8 h 2.8 23 2.8 v -2.8 -23 -2.8 c 0,0 -2.8,0 -2.8,0 z m 0,25.9 h -23 v -23 h 23 z"
       id="path70"
       inkscape:connector-curvature="0"
       style="fill:#cb79b1" /></g><g
     id="g963"><path
       style="fill:#f1f1f1;fill-opacity:1"
       inkscape:connector-curvature="0"
       id="path74"
       d="m 3.7,395.5 c -14.5,0 -26.3,-11.8 -26.3,-26.3 0,-14.5 11.8,-26.3 26.3,-26.3 14.5,0 26.3,11.9 26.3,26.4 0,14.5 -11.8,26.2 -26.3,26.2 z" /><path
       style="fill:#fafafa;fill-opacity:1"
       inkscape:connector-curvature="0"
       id="path76"
       d="m 3.8,344 c 13.9,0 25.3,11.3 25.3,25.3 0,14 -11.3,25.3 -25.3,25.3 -14,0 -25.3,-11.3 -25.3,-25.3 0,-14 11.3,-25.3 25.3,-25.3 m 0,-2 c -15,0 -27.3,12.2 -27.3,27.3 0,15.1 12.2,27.3 27.3,27.3 C 18.9,396.6 31,384.3 31,369.3 31,354.3 18.8,342 3.8,342 Z" /><path
       d="m 19.7,377.3 -16,-27.6 -16,27.6 -1.6,2.8 h 3.3 14.3 14.3 3.3 z m -15.9,0 H -8.9 l 12.7,-21.9 12.7,21.9 z"
       id="path80"
       inkscape:connector-curvature="0"
       style="fill:#66c194" /></g></g>
</svg>